<mxfile host="app.diagrams.net" modified="2022-01-01T22:32:09.993Z" agent="5.0 (Windows NT 10.0; Win64; x64) AppleWebKit/537.36 (KHTML, like Gecko) Chrome/96.0.4664.110 Safari/537.36" etag="KcWblRTK6Ca7EFP0V4b8" version="16.1.2" type="github">
  <diagram id="C5RBs43oDa-KdzZeNtuy" name="Page-1">
    <mxGraphModel dx="780" dy="1052" grid="1" gridSize="10" guides="1" tooltips="1" connect="1" arrows="1" fold="1" page="1" pageScale="1" pageWidth="827" pageHeight="1169" math="0" shadow="0">
      <root>
        <mxCell id="WIyWlLk6GJQsqaUBKTNV-0" />
        <mxCell id="WIyWlLk6GJQsqaUBKTNV-1" parent="WIyWlLk6GJQsqaUBKTNV-0" />
        <mxCell id="WIyWlLk6GJQsqaUBKTNV-2" value="" style="rounded=0;html=1;jettySize=auto;orthogonalLoop=1;fontSize=11;endArrow=block;endFill=0;endSize=8;strokeWidth=1;shadow=0;labelBackgroundColor=none;edgeStyle=orthogonalEdgeStyle;entryX=0.5;entryY=0;entryDx=0;entryDy=0;" parent="WIyWlLk6GJQsqaUBKTNV-1" source="WIyWlLk6GJQsqaUBKTNV-3" target="gyaCZ0Z-WsmwgE9hAEyF-0" edge="1">
          <mxGeometry relative="1" as="geometry" />
        </mxCell>
        <mxCell id="WIyWlLk6GJQsqaUBKTNV-3" value="Welcome Screen" style="rounded=1;whiteSpace=wrap;html=1;fontSize=12;glass=0;strokeWidth=1;shadow=0;" parent="WIyWlLk6GJQsqaUBKTNV-1" vertex="1">
          <mxGeometry x="160" y="80" width="120" height="40" as="geometry" />
        </mxCell>
        <mxCell id="WIyWlLk6GJQsqaUBKTNV-4" value="" style="rounded=0;html=1;jettySize=auto;orthogonalLoop=1;fontSize=11;endArrow=block;endFill=0;endSize=8;strokeWidth=1;shadow=0;labelBackgroundColor=none;edgeStyle=orthogonalEdgeStyle;exitX=0.5;exitY=1;exitDx=0;exitDy=0;entryX=0.5;entryY=0;entryDx=0;entryDy=0;" parent="WIyWlLk6GJQsqaUBKTNV-1" source="WIyWlLk6GJQsqaUBKTNV-6" target="gyaCZ0Z-WsmwgE9hAEyF-11" edge="1">
          <mxGeometry y="20" relative="1" as="geometry">
            <mxPoint as="offset" />
            <mxPoint x="220" y="590" as="sourcePoint" />
          </mxGeometry>
        </mxCell>
        <mxCell id="WIyWlLk6GJQsqaUBKTNV-5" value="No" style="edgeStyle=orthogonalEdgeStyle;rounded=0;html=1;jettySize=auto;orthogonalLoop=1;fontSize=11;endArrow=block;endFill=0;endSize=8;strokeWidth=1;shadow=0;labelBackgroundColor=none;exitX=1;exitY=0.5;exitDx=0;exitDy=0;" parent="WIyWlLk6GJQsqaUBKTNV-1" source="WIyWlLk6GJQsqaUBKTNV-6" target="WIyWlLk6GJQsqaUBKTNV-7" edge="1">
          <mxGeometry y="10" relative="1" as="geometry">
            <mxPoint as="offset" />
            <mxPoint x="270" y="550" as="sourcePoint" />
          </mxGeometry>
        </mxCell>
        <mxCell id="WIyWlLk6GJQsqaUBKTNV-6" value="Is letter in the word" style="rhombus;whiteSpace=wrap;html=1;shadow=0;fontFamily=Helvetica;fontSize=12;align=center;strokeWidth=1;spacing=6;spacingTop=-4;" parent="WIyWlLk6GJQsqaUBKTNV-1" vertex="1">
          <mxGeometry x="170" y="500" width="100" height="80" as="geometry" />
        </mxCell>
        <mxCell id="WIyWlLk6GJQsqaUBKTNV-7" value="Lose a life" style="rounded=1;whiteSpace=wrap;html=1;fontSize=12;glass=0;strokeWidth=1;shadow=0;" parent="WIyWlLk6GJQsqaUBKTNV-1" vertex="1">
          <mxGeometry x="320" y="520" width="120" height="40" as="geometry" />
        </mxCell>
        <mxCell id="WIyWlLk6GJQsqaUBKTNV-8" value="YES" style="rounded=0;html=1;jettySize=auto;orthogonalLoop=1;fontSize=11;endArrow=block;endFill=0;endSize=8;strokeWidth=1;shadow=0;labelBackgroundColor=none;edgeStyle=orthogonalEdgeStyle;" parent="WIyWlLk6GJQsqaUBKTNV-1" source="WIyWlLk6GJQsqaUBKTNV-10" target="WIyWlLk6GJQsqaUBKTNV-11" edge="1">
          <mxGeometry x="0.3333" y="20" relative="1" as="geometry">
            <mxPoint as="offset" />
          </mxGeometry>
        </mxCell>
        <mxCell id="WIyWlLk6GJQsqaUBKTNV-10" value="Is word fully reveald?" style="rhombus;whiteSpace=wrap;html=1;shadow=0;fontFamily=Helvetica;fontSize=12;align=center;strokeWidth=1;spacing=6;spacingTop=-4;" parent="WIyWlLk6GJQsqaUBKTNV-1" vertex="1">
          <mxGeometry x="170" y="800" width="100" height="80" as="geometry" />
        </mxCell>
        <mxCell id="gyaCZ0Z-WsmwgE9hAEyF-20" value="" style="edgeStyle=orthogonalEdgeStyle;rounded=0;orthogonalLoop=1;jettySize=auto;html=1;fontSize=17;" edge="1" parent="WIyWlLk6GJQsqaUBKTNV-1" source="WIyWlLk6GJQsqaUBKTNV-11" target="gyaCZ0Z-WsmwgE9hAEyF-19">
          <mxGeometry relative="1" as="geometry" />
        </mxCell>
        <mxCell id="WIyWlLk6GJQsqaUBKTNV-11" value="Won the Game" style="rounded=1;whiteSpace=wrap;html=1;fontSize=12;glass=0;strokeWidth=1;shadow=0;" parent="WIyWlLk6GJQsqaUBKTNV-1" vertex="1">
          <mxGeometry x="160" y="940" width="120" height="40" as="geometry" />
        </mxCell>
        <mxCell id="gyaCZ0Z-WsmwgE9hAEyF-25" style="edgeStyle=orthogonalEdgeStyle;rounded=0;orthogonalLoop=1;jettySize=auto;html=1;entryX=0.5;entryY=0;entryDx=0;entryDy=0;fontSize=17;" edge="1" parent="WIyWlLk6GJQsqaUBKTNV-1" source="gyaCZ0Z-WsmwgE9hAEyF-0" target="gyaCZ0Z-WsmwgE9hAEyF-2">
          <mxGeometry relative="1" as="geometry" />
        </mxCell>
        <mxCell id="gyaCZ0Z-WsmwgE9hAEyF-0" value="Randomly Select Word" style="rounded=1;whiteSpace=wrap;html=1;fontSize=12;glass=0;strokeWidth=1;shadow=0;" vertex="1" parent="WIyWlLk6GJQsqaUBKTNV-1">
          <mxGeometry x="160" y="170" width="120" height="50" as="geometry" />
        </mxCell>
        <mxCell id="gyaCZ0Z-WsmwgE9hAEyF-4" style="edgeStyle=orthogonalEdgeStyle;rounded=0;orthogonalLoop=1;jettySize=auto;html=1;entryX=0.5;entryY=0;entryDx=0;entryDy=0;" edge="1" parent="WIyWlLk6GJQsqaUBKTNV-1" source="gyaCZ0Z-WsmwgE9hAEyF-2" target="gyaCZ0Z-WsmwgE9hAEyF-5">
          <mxGeometry relative="1" as="geometry">
            <mxPoint x="270" y="380" as="targetPoint" />
          </mxGeometry>
        </mxCell>
        <mxCell id="gyaCZ0Z-WsmwgE9hAEyF-2" value="Show the number of letters" style="rounded=1;whiteSpace=wrap;html=1;fontSize=12;glass=0;strokeWidth=1;shadow=0;" vertex="1" parent="WIyWlLk6GJQsqaUBKTNV-1">
          <mxGeometry x="160" y="280" width="120" height="40" as="geometry" />
        </mxCell>
        <mxCell id="gyaCZ0Z-WsmwgE9hAEyF-5" value="Ask a letter from the user" style="rounded=1;whiteSpace=wrap;html=1;fontSize=12;glass=0;strokeWidth=1;shadow=0;" vertex="1" parent="WIyWlLk6GJQsqaUBKTNV-1">
          <mxGeometry x="160" y="410" width="120" height="40" as="geometry" />
        </mxCell>
        <mxCell id="gyaCZ0Z-WsmwgE9hAEyF-7" style="edgeStyle=orthogonalEdgeStyle;rounded=0;orthogonalLoop=1;jettySize=auto;html=1;entryX=0.5;entryY=0;entryDx=0;entryDy=0;exitX=0.5;exitY=1;exitDx=0;exitDy=0;" edge="1" parent="WIyWlLk6GJQsqaUBKTNV-1" source="gyaCZ0Z-WsmwgE9hAEyF-5" target="WIyWlLk6GJQsqaUBKTNV-6">
          <mxGeometry relative="1" as="geometry">
            <mxPoint x="240" y="320" as="targetPoint" />
            <mxPoint x="240" y="280" as="sourcePoint" />
          </mxGeometry>
        </mxCell>
        <mxCell id="gyaCZ0Z-WsmwgE9hAEyF-10" value="" style="endArrow=classic;html=1;rounded=0;exitX=0;exitY=0.5;exitDx=0;exitDy=0;" edge="1" parent="WIyWlLk6GJQsqaUBKTNV-1" source="WIyWlLk6GJQsqaUBKTNV-10">
          <mxGeometry width="50" height="50" relative="1" as="geometry">
            <mxPoint x="50" y="620" as="sourcePoint" />
            <mxPoint x="220" y="360" as="targetPoint" />
            <Array as="points">
              <mxPoint x="80" y="840" />
              <mxPoint x="80" y="360" />
            </Array>
          </mxGeometry>
        </mxCell>
        <mxCell id="gyaCZ0Z-WsmwgE9hAEyF-13" value="NO" style="edgeLabel;html=1;align=center;verticalAlign=middle;resizable=0;points=[];fontSize=17;" vertex="1" connectable="0" parent="gyaCZ0Z-WsmwgE9hAEyF-10">
          <mxGeometry x="-0.907" y="3" relative="1" as="geometry">
            <mxPoint as="offset" />
          </mxGeometry>
        </mxCell>
        <mxCell id="gyaCZ0Z-WsmwgE9hAEyF-11" value="Show it in the hidden word" style="rounded=1;whiteSpace=wrap;html=1;fontSize=12;glass=0;strokeWidth=1;shadow=0;" vertex="1" parent="WIyWlLk6GJQsqaUBKTNV-1">
          <mxGeometry x="160" y="660" width="120" height="40" as="geometry" />
        </mxCell>
        <mxCell id="gyaCZ0Z-WsmwgE9hAEyF-12" value="" style="rounded=0;html=1;jettySize=auto;orthogonalLoop=1;fontSize=11;endArrow=block;endFill=0;endSize=8;strokeWidth=1;shadow=0;labelBackgroundColor=none;edgeStyle=orthogonalEdgeStyle;exitX=0.5;exitY=1;exitDx=0;exitDy=0;entryX=0.5;entryY=0;entryDx=0;entryDy=0;" edge="1" parent="WIyWlLk6GJQsqaUBKTNV-1" source="gyaCZ0Z-WsmwgE9hAEyF-11" target="WIyWlLk6GJQsqaUBKTNV-10">
          <mxGeometry y="20" relative="1" as="geometry">
            <mxPoint as="offset" />
            <mxPoint x="230" y="590" as="sourcePoint" />
            <mxPoint x="240" y="630" as="targetPoint" />
          </mxGeometry>
        </mxCell>
        <mxCell id="gyaCZ0Z-WsmwgE9hAEyF-17" value="" style="edgeStyle=orthogonalEdgeStyle;rounded=0;orthogonalLoop=1;jettySize=auto;html=1;fontSize=17;" edge="1" parent="WIyWlLk6GJQsqaUBKTNV-1" source="gyaCZ0Z-WsmwgE9hAEyF-14" target="gyaCZ0Z-WsmwgE9hAEyF-16">
          <mxGeometry relative="1" as="geometry" />
        </mxCell>
        <mxCell id="gyaCZ0Z-WsmwgE9hAEyF-28" value="NO" style="edgeLabel;html=1;align=center;verticalAlign=middle;resizable=0;points=[];fontSize=17;" vertex="1" connectable="0" parent="gyaCZ0Z-WsmwgE9hAEyF-17">
          <mxGeometry x="-0.2229" y="4" relative="1" as="geometry">
            <mxPoint as="offset" />
          </mxGeometry>
        </mxCell>
        <mxCell id="gyaCZ0Z-WsmwgE9hAEyF-26" style="edgeStyle=orthogonalEdgeStyle;rounded=0;orthogonalLoop=1;jettySize=auto;html=1;fontSize=17;" edge="1" parent="WIyWlLk6GJQsqaUBKTNV-1" source="gyaCZ0Z-WsmwgE9hAEyF-14">
          <mxGeometry relative="1" as="geometry">
            <mxPoint x="220" y="360" as="targetPoint" />
            <Array as="points">
              <mxPoint x="520" y="360" />
            </Array>
          </mxGeometry>
        </mxCell>
        <mxCell id="gyaCZ0Z-WsmwgE9hAEyF-27" value="YES" style="edgeLabel;html=1;align=center;verticalAlign=middle;resizable=0;points=[];fontSize=17;" vertex="1" connectable="0" parent="gyaCZ0Z-WsmwgE9hAEyF-26">
          <mxGeometry x="-0.1864" y="-1" relative="1" as="geometry">
            <mxPoint as="offset" />
          </mxGeometry>
        </mxCell>
        <mxCell id="gyaCZ0Z-WsmwgE9hAEyF-14" value="Any lives left?" style="rhombus;whiteSpace=wrap;html=1;shadow=0;fontFamily=Helvetica;fontSize=12;align=center;strokeWidth=1;spacing=6;spacingTop=-4;" vertex="1" parent="WIyWlLk6GJQsqaUBKTNV-1">
          <mxGeometry x="470" y="500" width="100" height="80" as="geometry" />
        </mxCell>
        <mxCell id="gyaCZ0Z-WsmwgE9hAEyF-15" value="" style="edgeStyle=orthogonalEdgeStyle;rounded=0;html=1;jettySize=auto;orthogonalLoop=1;fontSize=11;endArrow=block;endFill=0;endSize=8;strokeWidth=1;shadow=0;labelBackgroundColor=none;exitX=1;exitY=0.5;exitDx=0;exitDy=0;" edge="1" parent="WIyWlLk6GJQsqaUBKTNV-1" source="WIyWlLk6GJQsqaUBKTNV-7" target="gyaCZ0Z-WsmwgE9hAEyF-14">
          <mxGeometry y="10" relative="1" as="geometry">
            <mxPoint as="offset" />
            <mxPoint x="470" y="640" as="sourcePoint" />
            <mxPoint x="520" y="660" as="targetPoint" />
          </mxGeometry>
        </mxCell>
        <mxCell id="gyaCZ0Z-WsmwgE9hAEyF-21" value="" style="edgeStyle=orthogonalEdgeStyle;rounded=0;orthogonalLoop=1;jettySize=auto;html=1;fontSize=17;entryX=0.45;entryY=0.425;entryDx=0;entryDy=0;entryPerimeter=0;" edge="1" parent="WIyWlLk6GJQsqaUBKTNV-1" source="gyaCZ0Z-WsmwgE9hAEyF-16" target="gyaCZ0Z-WsmwgE9hAEyF-19">
          <mxGeometry relative="1" as="geometry">
            <mxPoint x="330" y="960" as="targetPoint" />
          </mxGeometry>
        </mxCell>
        <mxCell id="gyaCZ0Z-WsmwgE9hAEyF-16" value="LOSE THE GAME" style="whiteSpace=wrap;html=1;shadow=0;strokeWidth=1;spacing=6;spacingTop=-4;" vertex="1" parent="WIyWlLk6GJQsqaUBKTNV-1">
          <mxGeometry x="460" y="930" width="120" height="60" as="geometry" />
        </mxCell>
        <mxCell id="gyaCZ0Z-WsmwgE9hAEyF-22" value="YES" style="edgeStyle=orthogonalEdgeStyle;rounded=0;orthogonalLoop=1;jettySize=auto;html=1;exitX=0.5;exitY=1;exitDx=0;exitDy=0;entryX=0;entryY=0.5;entryDx=0;entryDy=0;fontSize=17;" edge="1" parent="WIyWlLk6GJQsqaUBKTNV-1" source="gyaCZ0Z-WsmwgE9hAEyF-18" target="gyaCZ0Z-WsmwgE9hAEyF-0">
          <mxGeometry relative="1" as="geometry">
            <Array as="points">
              <mxPoint x="330" y="1130" />
              <mxPoint x="40" y="1130" />
              <mxPoint x="40" y="190" />
            </Array>
          </mxGeometry>
        </mxCell>
        <mxCell id="gyaCZ0Z-WsmwgE9hAEyF-24" value="NO" style="edgeStyle=orthogonalEdgeStyle;rounded=0;orthogonalLoop=1;jettySize=auto;html=1;fontSize=17;" edge="1" parent="WIyWlLk6GJQsqaUBKTNV-1" source="gyaCZ0Z-WsmwgE9hAEyF-18" target="gyaCZ0Z-WsmwgE9hAEyF-23">
          <mxGeometry relative="1" as="geometry" />
        </mxCell>
        <mxCell id="gyaCZ0Z-WsmwgE9hAEyF-18" value="PLAY AGAIN?" style="rhombus;whiteSpace=wrap;html=1;shadow=0;fontFamily=Helvetica;fontSize=12;align=center;strokeWidth=1;spacing=6;spacingTop=-4;" vertex="1" parent="WIyWlLk6GJQsqaUBKTNV-1">
          <mxGeometry x="280" y="1030" width="100" height="80" as="geometry" />
        </mxCell>
        <mxCell id="gyaCZ0Z-WsmwgE9hAEyF-19" value="" style="shape=waypoint;sketch=0;size=6;pointerEvents=1;points=[];fillColor=default;resizable=0;rotatable=0;perimeter=centerPerimeter;snapToPoint=1;rounded=1;glass=0;strokeWidth=1;shadow=0;" vertex="1" parent="WIyWlLk6GJQsqaUBKTNV-1">
          <mxGeometry x="310" y="1010" width="40" height="40" as="geometry" />
        </mxCell>
        <mxCell id="gyaCZ0Z-WsmwgE9hAEyF-23" value="BYE" style="whiteSpace=wrap;html=1;shadow=0;strokeWidth=1;spacing=6;spacingTop=-4;" vertex="1" parent="WIyWlLk6GJQsqaUBKTNV-1">
          <mxGeometry x="450" y="1040" width="120" height="60" as="geometry" />
        </mxCell>
      </root>
    </mxGraphModel>
  </diagram>
</mxfile>
